<?xml version="1.0" encoding="utf-8"?>
<!-- Generator: Adobe Illustrator 26.0.1, SVG Export Plug-In . SVG Version: 6.00 Build 0)  -->
<svg version="1.1" id="Layer_2_00000133506680824187483870000018185078413840839608_"
	 xmlns="http://www.w3.org/2000/svg" xmlns:xlink="http://www.w3.org/1999/xlink" x="0px" y="0px" viewBox="0 0 159 52"
	 style="enable-background:new 0 0 159 52;" xml:space="preserve">
<style type="text/css">
	.st0{fill:#111111;}
</style>
<g>
	<path class="st0" d="M68,41.3C68,41.3,68,41.3,68,41.3"/>
	<path class="st0" d="M68.3,44c0.3-0.1,1.1-0.4,1.3-0.5s0.5-0.3,0.8-0.4c0.7-0.4,1.4-0.8,2.1-1.2c0.2-0.1,0.4-0.2,0.6-0.3
		c0.2-0.1,0.4-0.2,0.6-0.4c0.2-0.1,0.3-0.2,0.5-0.3c0.2-0.1,0.3-0.2,0.5-0.3c0.2-0.1,0.3-0.4,0.4-0.7c0-0.1-0.1-0.3-0.1-0.4
		s-0.2-0.2-0.2-0.3c-0.2-0.1-0.3-0.2-0.4-0.4c-0.1-0.1-0.3-0.3-0.4-0.4c-0.2-0.1-0.3-0.2-0.5-0.2c-0.2,0-0.3,0-0.5,0.2
		c-0.1,0.1-0.2,0.1-0.3,0.2c-0.1,0.1-0.2,0.1-0.3,0.2c-0.3,0.2-0.6,0.4-1,0.6s-0.7,0.4-1,0.5c-0.3,0.1-1.4,0.6-1.6,0.8"/>
	<path class="st0" d="M68.8,40.7c-0.3,0.2-0.7,0.3-1,0.5c-0.3,0.1-0.7,0.3-1,0.4c-0.5,0.2-1,0.4-1.6,0.7s-3,1.3-3.3,1.4
		c-0.3,0.1-0.6,0.3-0.9,0.4c-0.6,0.2-1.2,0.5-1.8,0.7c-0.6,0.2-1.2,0.5-1.8,0.7c-0.7,0.3-1.4,0.5-2.1,0.8c-0.7,0.3-1.4,0.5-2.1,0.8
		c-0.7,0.2-1.4,0.4-2.1,0.6s-1.4,0.4-2.1,0.5c-1,0.2-1.9,0.4-2.7,0.4c-0.3,0-0.7,0-1,0s-0.7,0-1,0c-0.4-0.1-0.8-0.1-1.1-0.2
		s-0.7-0.2-1-0.4c-0.2-0.1-0.3-0.2-0.4-0.3c-0.1-0.1-0.2-0.3-0.3-0.4c-0.1-0.1-0.1-0.2-0.2-0.2c0-0.1-0.1-0.2-0.2-0.2
		c-0.2-0.4-0.3-0.7-0.4-1.1c-1.2-4.6,1.1-11.6,4.4-18.6c0.6-0.2,1.2-0.3,1.7-0.5c1-0.3,2-0.6,3.1-0.8c0.5-0.1,1-0.3,1.5-0.4
		c0.5-0.1,1-0.2,1.6-0.4c0.7-0.2,1.4-0.4,2.2-0.5c0.7-0.2,1.5-0.4,2.2-0.5c0.8-0.2,1.7-0.4,2.5-0.5s1.6-0.4,2.4-0.5
		c0.3-0.1,0.6-0.1,0.9-0.2c0.3,0,0.6-0.1,0.9-0.2c0.3-0.1,0.6-0.1,0.8-0.2c0.3,0,0.5-0.1,0.8-0.1c0.1,0,0.1,0,0.2-0.1
		c0.1-0.1,0.2-0.2,0.1-0.3c0-0.1,0-0.2,0.1-0.3v-0.1c-0.1-0.3-0.3-0.5-0.4-0.6c-0.2-0.1-0.3-0.2-0.5-0.4c-0.1-0.1-0.3-0.3-0.5-0.4
		c-0.1-0.1-0.3-0.1-0.4-0.2c-0.1,0-0.2,0-0.4,0c-0.5,0.1-1,0.1-1.5,0.2s-1,0.2-1.5,0.2c-0.5,0.1-0.9,0.2-1.3,0.3S58.7,21,58.2,21
		c-0.9,0.2-1.8,0.4-2.6,0.5c-0.9,0.2-1.8,0.4-2.6,0.6c-0.5,0.1-1,0.2-1.4,0.3c-0.5,0.1-1,0.2-1.4,0.3c-0.8,0.2-1.7,0.4-2.5,0.6
		c-0.3,0.1-0.5,0.1-0.8,0.2C51.3,15,56.8,7.1,58.5,4.5c0.2,0,0.4-0.1,0.6-0.1c1-0.2,2-0.3,3-0.5c1-0.1,2-0.3,3-0.4
		c0.7-0.1,1.3-0.1,1.9-0.2c0.6-0.1,1.3-0.1,1.9-0.2c0.6-0.1,1.2-0.1,1.7-0.1s1.1,0,1.7,0.1c0.2,0,0.3,0,0.5-0.3
		c0.1-0.2,0.1-0.5-0.1-0.8c-0.1-0.2-0.3-0.3-0.5-0.5S72.1,1.3,72,1.2c-0.3-0.2-0.7-0.4-1.1-0.4c-0.4-0.1-0.7-0.1-1.1-0.1
		c-0.3,0-0.7,0-1.1,0c-0.5,0-0.9,0-1.4,0c-0.4,0-0.9,0-1.3,0.1c-0.8,0.1-1.6,0.2-2.4,0.2c-0.8,0.1-1.6,0.2-2.4,0.3
		c-0.7,0.1-1.3,0.2-2,0.3c-0.7,0.1-7.5,1.2-7.6,1.2c-0.5,0.1-1,0.2-1.4,0.2c-0.5,0.1-0.9,0.2-1.4,0.3c-0.6,0.1-1.2,0.2-1.8,0.4
		s-1.2,0.3-1.8,0.5c-0.6,0.2-1.2,0.4-1.8,0.6c-0.6,0.2-1.2,0.4-1.8,0.6c-0.5,0.2-1,0.4-1.4,0.6c-0.5,0.2-1,0.4-1.4,0.7l-1.6,0.9
		c-0.1,0.1-0.3,0.3-0.5,0.6c-0.1,0.2-0.1,0.3,0,0.3c0.1,0.1,0.2,0.3,0.3,0.4s0.2,0.3,0.3,0.4c0.1,0.1,0.2,0.2,0.3,0.3
		s0.1,0.2,0.2,0.3c0.2,0.2,0.5,0.4,0.8,0.4c0.2,0,0.3-0.1,0.4-0.3c0.1-0.1,0.2-0.3,0.4-0.4c0.4-0.3,0.8-0.5,1.2-0.7s0.9-0.4,1.4-0.6
		C42.5,8.2,43,8,43.6,7.8c0.5-0.2,1.1-0.3,1.7-0.5c0.7-0.2,1.3-0.3,1.9-0.5c0.6-0.2,1.3-0.3,1.9-0.5c0.1,0,0.3-0.1,0.4-0.1
		c0.1,0,0.2-0.1,0.4-0.1v0.1c-0.4,0.6-0.8,1.3-1.2,1.9c-0.4,0.6-0.7,1.3-1.1,2c-0.7,1.3-1.3,2.5-1.9,3.7c-0.3,0.6-0.7,1.3-1,1.9
		c-0.3,0.6-0.6,1.3-0.9,1.9c-0.4,0.8-0.8,1.6-1.1,2.4s-0.7,1.6-1,2.4c-0.2,0.4-0.3,0.9-0.5,1.3c-0.2,0.4-0.3,0.9-0.5,1.3
		c-0.1,0.1-0.1,0.2-0.2,0.3s-0.1,0.1-0.2,0.2c-0.6,0.2-1.2,0.4-1.8,0.6c-0.6,0.2-1.2,0.5-1.8,0.7c-1,0.4-2.1,0.9-3.2,1.4
		c-0.2,0.1-0.3,0.1-0.5,0.2s-0.3,0.2-0.5,0.2c-0.4,0.2-0.8,0.4-1.1,0.7c-0.4,0.2-0.7,0.5-1,0.8c-0.1,0.1-0.2,0.3-0.4,0.5
		c-0.1,0.2-0.1,0.4,0,0.6c0.2,0.2,0.3,0.4,0.5,0.6c0.1,0.2,0.3,0.4,0.5,0.6c0.2,0.3,0.6,0.5,0.9,0.5c0.5,0.1,0.7-0.1,0.7-0.6
		c0-0.1,0.1-0.3,0.2-0.4c0.1-0.1,0.3-0.1,0.4-0.2s0.3-0.2,0.5-0.2c0.6-0.3,1.1-0.6,1.7-0.9c0.6-0.3,1.2-0.5,1.8-0.8
		c0.3-0.1,0.6-0.3,0.9-0.4c0.3-0.1,0.6-0.2,0.9-0.3c0,0.1,0,0.3,0,0.4c-0.1,0.4-0.3,0.8-0.4,1.2c-0.1,0.4-0.2,0.8-0.3,1.2
		c-0.1,0.5-0.3,1.1-0.4,1.6s-0.2,1.1-0.3,1.7c-0.1,0.6-0.2,1.2-0.2,1.7c0,0.6-0.1,1.1-0.2,1.7c-0.2,1.5-0.2,2.9,0,4.2
		c0.1,0.4,0.2,0.8,0.3,1.3c0.1,0.4,0.2,0.8,0.4,1.2c0.1,0.4,0.3,0.7,0.5,1c0.2,0.3,0.4,0.6,0.5,0.9c0.3,0.5,0.6,0.9,0.9,1.2
		c0.3,0.3,0.7,0.7,1,1.1c0.3,0.3,0.6,0.5,0.9,0.7c0.3,0.2,0.7,0.3,1.1,0.5c0.5,0.2,1,0.3,1.6,0.4s1.1,0.1,1.6,0.2
		c0.6,0,1.2,0,1.8-0.1c0.6-0.1,1.2-0.2,1.8-0.3c0.9-0.2,1.8-0.4,2.7-0.7s1.8-0.6,2.7-0.9c0.5-0.2,0.9-0.3,1.3-0.5
		c0.4-0.2,0.8-0.3,1.3-0.5c0.5-0.2,1-0.4,1.5-0.6c0.5-0.2,1-0.4,1.5-0.6c0.5-0.2,1-0.4,1.4-0.6c0.5-0.2,1-0.4,1.4-0.6
		c0.5-0.2,1-0.4,1.4-0.6s0.9-0.4,1.3-0.6c0.1-0.1,0.3-0.1,0.4-0.2c0.1,0,0.2-0.1,0.4-0.2c0.2-0.1,0.3-0.2,0.5-0.2s0.3-0.2,0.5-0.2"
		/>
	<path class="st0" d="M33.7,7.5C34.2,7,34.6,6.4,35,5.8s0.9-1.1,1.4-1.7c0.5-0.6,0.4-1.1-0.2-1.5c-0.2-0.2-0.4-0.3-0.6-0.4
		c-0.2-0.1-0.4-0.2-0.6-0.4c0,0-0.1,0-0.1,0l-2.6-1.4c0,0-4.4,2.6-21.8,33.5c-0.3,0.4-0.6,0.8-0.8,1.3C9.1,36.2,8.5,37.1,8,38
		c-0.6,0.9-1.1,1.8-1.7,2.8c-0.3,0.5-0.7,1.1-1,1.6s-0.7,1.1-1,1.7c-0.1,0.1-0.2,0.2-0.2,0.2l0-0.2c0.2-0.8,0.3-1.6,0.4-2.4
		c0.1-0.8,0.3-1.6,0.4-2.4c0.2-0.8,0.3-1.6,0.5-2.3c0.2-0.8,0.3-1.5,0.5-2.3c0.2-1,0.5-2,0.7-3c0.2-1,0.4-2,0.7-3
		c0.2-0.9,0.5-1.9,0.7-2.8C8.2,25,8.5,24,8.8,23.1c0.2-0.6,0.3-1.2,0.5-1.8c0.1-0.6,0.3-1.2,0.6-1.8c0.3-1.2,0.7-2.3,1.1-3.4
		c0.4-1.1,0.8-2.2,1.2-3.4c0.4-1.1,0.8-2.2,1.2-3.3s0.8-2.2,1.2-3.3c0.1-0.2,0.2-0.5,0.2-0.7s0.1-0.5,0.2-0.8c0.1-0.2,0.1-0.4,0-0.7
		c0-0.2-0.1-0.4-0.4-0.6c-0.1-0.1-0.1-0.2-0.2-0.3S14.1,3,14,2.9c-0.3-0.2-0.7-0.5-1.1-0.7c-0.4-0.2-0.7-0.2-1,0.1
		c-0.2,0.3-0.5,0.5-0.7,0.8c-0.2,0.3-0.5,0.6-0.7,0.9C10.1,4.5,9.8,5,9.5,5.4S8.9,6.3,8.6,6.7c-0.5,0.8-1,1.6-1.5,2.4
		c-0.5,0.8-1,1.6-1.4,2.5c-0.5,1-1,2.1-1.5,3.1C3.8,15.8,3.3,16.9,3,18c-0.2,0.5-0.4,1.1-0.5,1.7s-0.2,1.2-0.3,1.8
		c0,0.1,0.1,0.2,0.1,0.3c0.2,0.2,0.3,0.4,0.5,0.6c0.2,0.2,0.4,0.4,0.6,0.6c0.3,0.2,0.6,0.3,0.9,0.3c0.1,0,0.1,0,0.2-0.1
		c0.2-0.2,0.2-0.4,0.3-0.5c0-0.1,0-0.2,0-0.3s0.1-0.2,0.1-0.3c0.3-0.9,0.6-1.9,1-2.7c0.4-0.9,0.7-1.7,1.2-2.6
		c0.1-0.2,0.2-0.3,0.3-0.5c-0.1,0.2-0.1,0.4-0.2,0.5C7.1,17,7.1,17.1,7,17.3c-0.2,0.7-0.4,1.4-0.6,2.1S6,20.8,5.8,21.5
		c-0.2,0.6-0.3,1.1-0.5,1.7c-0.2,0.6-0.3,1.1-0.4,1.7c-0.2,0.6-0.3,1.3-0.5,2c-0.2,0.6-0.3,1.3-0.5,2c-0.3,1.1-0.5,2.2-0.8,3.3
		c-0.2,1.1-0.5,2.2-0.7,3.3c-0.1,0.6-0.2,1.2-0.3,1.8c-0.1,0.6-0.2,1.2-0.3,1.7c-0.1,0.6-0.2,1.3-0.3,1.9s-0.2,1.3-0.3,1.9
		c-0.1,0.5-0.2,0.9-0.2,1.3s-0.1,0.9-0.2,1.3c-0.1,0.5-0.2,1-0.2,1.5s-0.1,1-0.1,1.5c0,0.2,0,0.3,0,0.5c0,0.1,0.1,0.2,0.2,0.4
		c0.3,0.4,0.6,0.8,0.9,1.1c0.1,0.1,0.2,0.2,0.4,0.3c0.1,0.1,0.3,0.2,0.4,0.3c0.3,0.2,0.6,0.3,1,0.3s0.7-0.1,0.9-0.3
		C4,51.1,4.1,51,4.2,50.9s0.2-0.2,0.2-0.3c0.2-0.3,0.4-0.6,0.6-0.9s0.4-0.6,0.6-0.9c0.5-0.8,0.9-1.5,1.4-2.2
		c0.4-0.7,0.9-1.5,1.4-2.2c0.5-0.9,1.1-1.7,1.6-2.6s1.1-1.7,1.6-2.6c0.7-1.1,1.4-2.1,2.1-3.2s1.4-2.1,2.1-3.2c0.3-0.5,0.7-1,1-1.5
		s0.7-1,1-1.5l3.4-5c0.5-0.8,1-1.5,1.5-2.2c0.5-0.7,1-1.5,1.6-2.2c0.5-0.6,1-1.3,1.5-2c0.5-0.7,1-1.4,1.4-2c0.3-0.4,0.7-0.9,1-1.3
		c0.3-0.4,0.6-0.9,1-1.3c0.7-1,1.5-2,2.2-3S33,8.6,33.7,7.5L33.7,7.5z"/>
</g>
<g>
	<g>
		<path class="st0" d="M84.9,16.3v6.3h2.8v0.8h-3.7v-7.1L84.9,16.3L84.9,16.3z"/>
		<path class="st0" d="M90,16.3v7.1h-0.9v-7.1C89.1,16.3,90,16.3,90,16.3z"/>
		<path class="st0" d="M97.1,16.3h1l-3.3,7.5l-3.3-7.5h1l2.3,5.5L97.1,16.3z"/>
		<path class="st0" d="M100.3,16.3v7.1h-0.9v-7.1C99.4,16.3,100.3,16.3,100.3,16.3z M99.9,16.3h3.6v0.8h-3.6V16.3z M99.9,19.2h3.4
			V20h-3.4V19.2z M99.9,22.6h3.6v0.8h-3.6V22.6z"/>
		<path class="st0" d="M109.9,16.3v7.1h-0.9v-7.1C109.1,16.3,109.9,16.3,109.9,16.3z M109.6,16.3h1.5c0.5,0,0.9,0.1,1.2,0.3
			c0.4,0.2,0.7,0.4,0.9,0.7c0.2,0.3,0.3,0.7,0.3,1.1s-0.1,0.8-0.3,1.1c-0.2,0.3-0.5,0.6-0.9,0.7c-0.4,0.2-0.8,0.3-1.2,0.3h-1.5v-0.8
			h1.5c0.5,0,0.8-0.1,1.1-0.3s0.4-0.5,0.4-1s-0.1-0.8-0.4-1s-0.7-0.3-1.1-0.3h-1.5V16.3L109.6,16.3z"/>
		<path class="st0" d="M116,16.3v7.1h-0.9v-7.1C115.2,16.3,116,16.3,116,16.3z M115.6,16.3h1.5c0.5,0,0.9,0.1,1.2,0.3
			c0.4,0.2,0.7,0.4,0.9,0.7c0.2,0.3,0.3,0.7,0.3,1.1s-0.1,0.8-0.3,1.1c-0.2,0.3-0.5,0.6-0.9,0.7c-0.4,0.2-0.8,0.3-1.2,0.3h-1.5v-0.8
			h1.5c0.3,0,0.6,0,0.8-0.2c0.2-0.1,0.4-0.3,0.6-0.5s0.2-0.5,0.2-0.7s-0.1-0.5-0.2-0.7s-0.3-0.4-0.6-0.5c-0.2-0.1-0.5-0.2-0.8-0.2
			h-1.5V16.3L115.6,16.3z M117.4,20l2.6,3.5h-1.1l-2.4-3.5C116.4,20,117.4,20,117.4,20z"/>
		<path class="st0" d="M121.2,18.4c0.2-0.4,0.4-0.8,0.8-1.2s0.7-0.6,1.2-0.8c0.4-0.2,0.9-0.3,1.4-0.3s1,0.1,1.4,0.3s0.8,0.4,1.2,0.8
			s0.6,0.7,0.8,1.2s0.3,0.9,0.3,1.5s-0.1,1-0.3,1.5s-0.4,0.8-0.8,1.2s-0.7,0.6-1.2,0.8c-0.4,0.2-0.9,0.3-1.4,0.3s-1-0.1-1.4-0.3
			s-0.8-0.4-1.2-0.8c-0.3-0.3-0.6-0.7-0.8-1.2s-0.3-0.9-0.3-1.5S121.1,18.9,121.2,18.4z M122.2,21.3c0.2,0.4,0.6,0.8,1,1
			c0.4,0.2,0.9,0.4,1.4,0.4s1-0.1,1.4-0.4c0.4-0.2,0.7-0.6,1-1c0.2-0.4,0.3-0.9,0.3-1.4s-0.1-1-0.3-1.4c-0.2-0.4-0.6-0.8-1-1
			c-0.4-0.2-0.9-0.4-1.4-0.4s-1,0.1-1.4,0.4c-0.4,0.2-0.7,0.6-1,1c-0.2,0.4-0.3,0.9-0.3,1.4S122,20.9,122.2,21.3z"/>
		<path class="st0" d="M130.8,16.3v7.1h-0.9v-7.1C129.9,16.3,130.8,16.3,130.8,16.3z M130.4,16.3h1.5c0.5,0,0.9,0.1,1.2,0.3
			c0.4,0.2,0.6,0.4,0.9,0.7c0.2,0.3,0.3,0.7,0.3,1.1s-0.1,0.8-0.3,1.1c-0.2,0.3-0.5,0.6-0.9,0.7c-0.4,0.2-0.8,0.3-1.2,0.3h-1.5v-0.8
			h1.5c0.5,0,0.8-0.1,1.1-0.3s0.4-0.5,0.4-1s-0.1-0.8-0.4-1s-0.7-0.3-1.1-0.3h-1.5V16.3L130.4,16.3z"/>
		<path class="st0" d="M136.9,16.3v7.1H136v-7.1C136,16.3,136.9,16.3,136.9,16.3z M136.5,16.3h3.6v0.8h-3.6V16.3z M136.5,19.2h3.4
			V20h-3.4V19.2z M136.5,22.6h3.6v0.8h-3.6V22.6z"/>
		<path class="st0" d="M143,16.3v7.1h-0.9v-7.1C142.1,16.3,143,16.3,143,16.3z M142.6,16.3h1.5c0.5,0,0.9,0.1,1.2,0.3
			c0.4,0.2,0.6,0.4,0.9,0.7c0.2,0.3,0.3,0.7,0.3,1.1s-0.1,0.8-0.3,1.1c-0.2,0.3-0.5,0.6-0.9,0.7c-0.4,0.2-0.8,0.3-1.2,0.3h-1.5v-0.8
			h1.5c0.3,0,0.6,0,0.8-0.2s0.4-0.3,0.6-0.5s0.2-0.5,0.2-0.7s-0.1-0.5-0.2-0.7s-0.3-0.4-0.6-0.5c-0.2-0.1-0.5-0.2-0.8-0.2h-1.5V16.3
			L142.6,16.3z M144.4,20l2.6,3.5h-1.1l-2.4-3.5H144.4z"/>
		<path class="st0" d="M147.6,16.3h4.5v0.8h-1.8v6.3h-0.9v-6.3h-1.8V16.3z"/>
		<path class="st0" d="M158.8,16.3l-2.4,4.1v3.1h-0.9v-3.1l-2.4-4.1h1l1.8,3.3l1.8-3.3L158.8,16.3L158.8,16.3z"/>
	</g>
	<g>
		<path class="st0" d="M84.9,35.4h-0.9l0.9-7.5l2.9,5.2l2.9-5.2l0.9,7.5h-0.9l-0.5-4.8l-2.3,4.2l-2.3-4.2
			C85.5,30.6,84.9,35.4,84.9,35.4z"/>
		<path class="st0" d="M94.7,32.7l-0.1,0.2l-1.1,2.5h-1l3.3-7.5l3.3,7.5h-1l-1-2.5l-0.1-0.2l-1.2-2.9C95.9,29.9,94.7,32.7,94.7,32.7
			z M94.4,32.5h3.2l0.3,0.8h-3.8L94.4,32.5L94.4,32.5z"/>
		<path class="st0" d="M107.1,28.3v7.5l-5.4-5.7v5.3h-0.9v-7.5l5.4,5.7v-5.3C106.2,28.3,107.1,28.3,107.1,28.3z"/>
		<path class="st0" d="M110.7,32.7l-0.1,0.2l-1.1,2.5h-1l3.3-7.5l3.3,7.5h-1l-1-2.5l-0.1-0.2l-1.2-2.9
			C111.9,29.9,110.7,32.7,110.7,32.7z M110.3,32.5h3.2l0.3,0.8H110L110.3,32.5L110.3,32.5z"/>
		<path class="st0" d="M119.7,31.8h3.3c0,0.5-0.1,1-0.2,1.4c-0.2,0.5-0.4,0.8-0.7,1.2s-0.7,0.6-1.1,0.8s-0.9,0.3-1.5,0.3
			s-1-0.1-1.4-0.3s-0.8-0.4-1.2-0.8s-0.6-0.7-0.8-1.2c-0.2-0.5-0.3-0.9-0.3-1.5s0.1-1,0.3-1.5c0.2-0.5,0.4-0.8,0.8-1.2
			s0.7-0.6,1.2-0.8s0.9-0.3,1.4-0.3c0.4,0,0.8,0.1,1.2,0.2c0.4,0.1,0.7,0.3,1,0.5c0.3,0.2,0.6,0.5,0.8,0.8l-0.6,0.6
			c-0.2-0.4-0.5-0.7-0.9-0.9s-0.9-0.3-1.4-0.3c-0.5,0-1,0.1-1.4,0.4s-0.7,0.6-1,1c-0.2,0.4-0.4,0.9-0.4,1.5c0,0.6,0.1,1,0.4,1.5
			s0.6,0.8,1,1s0.9,0.4,1.4,0.4c0.3,0,0.7,0,1-0.2c0.3-0.1,0.5-0.2,0.7-0.4c0.2-0.2,0.4-0.4,0.5-0.7c0.1-0.2,0.2-0.5,0.3-0.8h-2.4
			L119.7,31.8L119.7,31.8z"/>
		<path class="st0" d="M125.8,28.3v7.2h-0.9v-7.2C124.9,28.3,125.8,28.3,125.8,28.3z M125.4,28.3h3.6v0.8h-3.6
			C125.4,29.1,125.4,28.3,125.4,28.3z M125.4,31.1h3.4v0.8h-3.4V31.1z M125.4,34.6h3.6v0.8h-3.6C125.4,35.4,125.4,34.6,125.4,34.6z"
			/>
		<path class="st0" d="M131.7,35.4h-0.9l0.9-7.5l2.9,5.2l2.9-5.2l0.9,7.5h-0.9l-0.5-4.8l-2.3,4.2l-2.3-4.2
			C132.2,30.6,131.7,35.4,131.7,35.4z"/>
		<path class="st0" d="M141,28.3v7.2h-0.9v-7.2C140.1,28.3,141,28.3,141,28.3z M140.6,28.3h3.6v0.8h-3.6V28.3z M140.6,31.1h3.4v0.8
			h-3.4V31.1z M140.6,34.6h3.6v0.8h-3.6V34.6z"/>
		<path class="st0" d="M152.7,28.3v7.5l-5.4-5.7v5.3h-0.9v-7.5l5.4,5.7v-5.3C151.8,28.3,152.7,28.3,152.7,28.3z"/>
		<path class="st0" d="M154.2,28.3h4.6v0.8h-1.8v6.3h-0.9v-6.3h-1.8L154.2,28.3L154.2,28.3z"/>
	</g>
</g>
</svg>
