<svg width="223" height="40" viewBox="0 0 223 40" fill="none" xmlns="http://www.w3.org/2000/svg">
<g clip-path="url(#clip0_1027_397)">
<path d="M0.380859 39.8184V0.363281H10.1648L24.8975 23.2383V0.363281H33.2324V39.8184H23.4482L8.71533 17.0371V39.8184H0.380859Z" fill="black"/>
<path d="M12.9883 28.5176L0.380859 10.3301V0.363281H33.2324V10.3301L20.5312 28.5176H33.2324V39.8184H0.380859V28.5176H12.9883Z" fill="black"/>
<path d="M20.2656 22.8828L7.09766 0.363281H18.8086L26.1719 12.8906L33.5352 0.363281H45.2461L32.1719 22.8828V39.8184H20.2656V22.8828Z" fill="black"/>
<path d="M50.4102 39.8184V0.363281H58.7451V39.8184H50.4102Z" fill="black"/>
<path d="M66.4727 39.8184V0.363281H89.4727C94.8809 0.363281 99.0889 1.95898 102.096 5.15039C105.103 8.24805 106.606 12.3711 106.606 17.5195C106.606 22.668 105.103 26.791 102.096 29.8887C99.0889 32.9863 94.8809 34.5352 89.4727 34.5352H74.8906V25.5605H88.0156C90.2188 25.5605 91.9531 25.0449 93.2188 23.998C94.5781 22.9512 95.2578 21.5918 95.2578 19.9219C95.2578 18.252 94.5781 16.8926 93.2188 15.8457C91.9531 14.7988 90.2188 14.2754 88.0156 14.2754H74.8906V39.8184H66.4727Z" fill="black"/>
<path d="M129.538 39.8184V14.5078H118.046V39.8184H109.616V0.363281H140.995V39.8184H129.538Z" fill="black"/>
<path d="M158.706 39.8184V0.363281H167.136V25.332H182.28V0.363281H190.71V39.8184H158.706Z" fill="black"/>
<path d="M214.378 40V25.4258C214.378 21.0508 213.134 17.7949 210.645 15.6582C208.25 13.5215 205.116 12.4531 201.243 12.4531C197.37 12.4531 194.235 13.5215 191.84 15.6582C189.444 17.7949 188.247 21.0508 188.247 25.4258V40H179.817V0.546875H188.247V8.53125C190.45 6.04297 193.391 4.79883 197.071 4.79883C202.122 4.79883 206.1 6.58789 208.999 10.166C211.992 13.6504 213.487 18.2559 213.487 24.0723V40H214.378Z" fill="black"/>
<path d="M214.378 40V25.4258C214.378 21.0508 213.134 17.7949 210.645 15.6582C208.25 13.5215 205.116 12.4531 201.243 12.4531C197.37 12.4531 194.235 13.5215 191.84 15.6582C189.444 17.7949 188.247 21.0508 188.247 25.4258V40H179.817V0.546875H188.247V8.53125C190.45 6.04297 193.391 4.79883 197.071 4.79883C202.122 4.79883 206.1 6.58789 208.999 10.166C211.992 13.6504 213.487 18.2559 213.487 24.0723V40H214.378Z" fill="black"/>
<g clip-path="url(#clip1_1027_397)">
<path d="M49.2093 39.8184V0.363281H57.5442V39.8184H49.2093Z" fill="black"/>
<path d="M65.2716 39.8184V0.363281H88.2716C93.6798 0.363281 97.8878 1.95898 100.895 5.15039C103.902 8.24805 105.405 12.3711 105.405 17.5195C105.405 22.668 103.902 26.791 100.895 29.8887C97.8878 32.9863 93.6798 34.5352 88.2716 34.5352H73.6895V25.5605H86.8145C89.0177 25.5605 90.752 25.0449 92.0177 23.998C93.377 22.9512 94.0567 21.5918 94.0567 19.9219C94.0567 18.252 93.377 16.8926 92.0177 15.8457C90.752 14.7988 89.0177 14.2754 86.8145 14.2754H73.6895V39.8184H65.2716Z" fill="black"/>
<path d="M128.337 39.8184V14.5078H116.845V39.8184H108.415V0.363281H139.794V39.8184H128.337Z" fill="black"/>
<path d="M157.505 39.8184V0.363281H165.935V25.332H181.079V0.363281H189.509V39.8184H157.505Z" fill="black"/>
<path d="M187.046 8.53125V0.546875H178.616V40H187.046V25.4258C187.046 21.0508 188.289 17.7949 190.639 15.6582C193.034 13.5215 196.168 12.4531 200.042 12.4531C203.914 12.4531 207.049 13.5215 209.444 15.6582C211.839 17.7949 213.036 21.0508 213.036 25.4258V40H221.466V24.0723C221.466 18.2559 219.971 13.6504 217.02 10.166C214.121 6.58789 210.143 4.79883 205.092 4.79883C201.412 4.79883 198.471 6.04297 196.268 8.53125H196.174L187.046 8.53125Z" fill="black"/>
</g>
</g>
<defs>
<clipPath id="clip0_1027_397">
<rect width="222.099" height="39.6367" fill="white" transform="translate(0.380859 0.363281)"/>
</clipPath>
<clipPath id="clip1_1027_397">
<rect width="173.257" height="39.6367" fill="white" transform="translate(49.209 0.363281)"/>
</clipPath>
</defs>
</svg>
