<svg xmlns="http://www.w3.org/2000/svg" id="Layer_2" data-name="Layer 2" viewBox="0 0 159 52"><defs><style>      .cls-1 {        fill: #fff;      }    </style></defs><g><path class="cls-1" d="M68,41.35s-.04-.02-.07-.06"></path><path class="cls-1" d="M68.29,43.96c.28-.14,1.09-.38,1.35-.52.26-.14.53-.28.81-.42.73-.38,1.43-.79,2.1-1.21.17-.1.37-.21.58-.31.21-.1.4-.23.58-.37.17-.1.35-.21.52-.31.17-.11.35-.21.52-.32.17-.14.29-.37.37-.68,0-.14-.05-.26-.13-.37s-.17-.19-.23-.26c-.18-.1-.32-.23-.45-.37-.12-.14-.27-.26-.45-.37-.18-.1-.34-.17-.5-.18-.16-.02-.33.04-.5.18-.1.07-.22.14-.34.21-.12.07-.24.14-.34.21-.32.21-.64.41-.97.6-.33.19-.65.38-.97.55-.28.14-1.41.64-1.63.76"></path><path class="cls-1" d="M68.78,40.71c-.35.17-.69.32-1.02.45-.33.12-.67.27-1.02.44-.52.21-1.04.44-1.55.68-.51.24-3.01,1.28-3.33,1.42-.31.14-.63.28-.94.42-.59.24-1.2.49-1.81.73-.61.24-1.21.49-1.81.73-.7.28-1.41.55-2.12.81-.72.26-1.42.52-2.12.76-.7.21-1.39.41-2.07.6-.68.19-1.37.36-2.07.5-.98.24-1.87.38-2.67.42-.35,0-.68.02-1,.05-.32.03-.65.02-1-.05-.39-.07-.75-.14-1.1-.21-.35-.07-.68-.19-1-.37-.21-.07-.33-.16-.37-.26-.11-.14-.22-.27-.34-.39-.07-.07-.11-.15-.16-.22-.05-.08-.11-.15-.15-.24-.16-.37-.31-.74-.42-1.12-1.18-4.61,1.08-11.63,4.37-18.63.58-.16,1.16-.32,1.73-.48,1.01-.28,2.04-.56,3.09-.84.49-.14,1-.27,1.52-.39.52-.12,1.05-.25,1.57-.39.7-.17,1.41-.35,2.15-.52.73-.17,1.45-.35,2.15-.52.84-.18,1.67-.36,2.49-.55s1.63-.38,2.44-.55c.28-.07.58-.12.89-.16.31-.03.61-.09.89-.16.28-.07.55-.13.81-.18.26-.05.53-.1.81-.13.07,0,.14-.03.21-.1.11-.07.15-.17.13-.29-.02-.12,0-.24.08-.34v-.1c-.14-.28-.28-.47-.42-.58-.17-.11-.33-.23-.47-.37-.14-.14-.3-.26-.47-.37-.14-.07-.26-.12-.37-.16-.11-.03-.23-.03-.37,0-.52.07-1.04.15-1.55.24s-1.01.17-1.49.24c-.46.07-.9.16-1.34.26-.44.1-.88.19-1.34.26-.87.18-1.75.36-2.62.55-.87.19-1.75.39-2.62.6-.49.1-.97.22-1.44.34-.47.12-.95.24-1.44.34-.84.18-1.67.38-2.49.6-.26.07-.53.14-.79.21,4.47-8.65,9.94-16.62,11.73-19.17.19-.03.37-.06.57-.09,1.01-.18,2.03-.33,3.04-.47,1.01-.14,2.03-.28,3.04-.42.66-.07,1.31-.14,1.94-.21.63-.07,1.28-.12,1.94-.16.59-.07,1.17-.1,1.73-.1s1.14.04,1.73.1c.17.04.33-.05.47-.26.14-.24.12-.52-.05-.84-.14-.17-.3-.33-.47-.47-.17-.14-.35-.28-.52-.42-.28-.24-.65-.37-1.1-.37-.39-.07-.74-.11-1.08-.13-.33-.02-.69,0-1.07.03-.49,0-.95,0-1.39.03-.44.02-.88.04-1.34.08-.8.07-1.6.15-2.38.24-.79.09-1.58.18-2.39.29-.66.1-1.32.2-1.97.29-.65.09-7.5,1.22-7.57,1.23-.49.07-.96.15-1.42.24-.45.09-.93.18-1.42.29-.59.1-1.2.23-1.83.37-.63.14-1.24.3-1.83.47-.59.18-1.18.36-1.76.55-.58.19-1.16.39-1.76.6-.49.18-.97.36-1.44.55-.47.19-.95.43-1.44.71l-1.57.94c-.14.1-.32.3-.52.58-.07.18-.07.28,0,.31.11.14.19.29.26.45.07.16.17.29.31.39.11.07.19.16.26.26.07.1.14.19.21.26.17.21.45.35.84.42.21,0,.33-.09.37-.26.1-.14.23-.26.37-.37.38-.28.79-.52,1.23-.71.44-.19.9-.38,1.39-.55.56-.17,1.11-.35,1.65-.52.54-.18,1.09-.35,1.65-.52.66-.17,1.31-.34,1.94-.5.63-.16,1.28-.32,1.94-.5.14-.03.27-.07.39-.1.12-.03.25-.05.39-.05v.11c-.42.63-.81,1.27-1.18,1.91-.37.65-.74,1.3-1.13,1.97-.7,1.26-1.35,2.5-1.94,3.72-.35.63-.67,1.26-.97,1.89-.3.63-.58,1.28-.86,1.94-.39.8-.75,1.62-1.1,2.44-.35.82-.7,1.63-1.05,2.44-.17.42-.34.85-.5,1.28-.16.44-.31.87-.45,1.28-.07.1-.12.19-.16.26-.04.07-.1.12-.21.16-.59.18-1.19.38-1.78.6-.59.23-1.19.45-1.78.66-1.01.42-2.08.87-3.2,1.36-.18.07-.33.15-.45.24-.12.09-.27.17-.45.24-.39.21-.75.44-1.1.68-.35.25-.68.51-1,.79-.1.1-.23.26-.37.47-.1.24-.09.44.05.58.17.21.33.42.47.63.14.21.31.4.52.58.24.31.56.47.94.47.45.07.68-.12.68-.58,0-.14.07-.26.21-.37.14-.07.28-.15.42-.24.14-.09.3-.17.47-.24.56-.31,1.13-.6,1.7-.86.58-.26,1.16-.52,1.76-.76.31-.14.62-.27.92-.39.3-.12.6-.22.92-.29.03.14.02.28-.05.42-.14.38-.26.78-.37,1.18-.1.4-.21.8-.31,1.18-.14.52-.26,1.06-.37,1.6-.11.54-.21,1.09-.32,1.65-.11.59-.18,1.17-.24,1.73-.05.56-.11,1.14-.18,1.73-.18,1.47-.16,2.88.05,4.25.07.42.16.84.26,1.26.11.42.24.82.42,1.21.14.38.3.72.5,1.02.19.3.38.6.55.92.28.45.58.86.92,1.21.33.35.67.72,1.02,1.1.28.28.59.51.94.68.35.17.72.33,1.1.47.52.21,1.05.35,1.57.42.52.07,1.07.12,1.63.16.59.03,1.19,0,1.78-.08.59-.09,1.19-.18,1.78-.29.91-.18,1.82-.4,2.73-.68.91-.28,1.82-.59,2.73-.94.45-.18.89-.34,1.31-.5.42-.16.84-.32,1.26-.5.49-.18.99-.37,1.49-.58.51-.21,1-.42,1.49-.63.49-.18.97-.37,1.44-.58.47-.21.95-.42,1.44-.63.49-.21.95-.41,1.39-.6.44-.19.88-.39,1.34-.6.14-.07.26-.12.37-.16.1-.04.23-.09.37-.16.18-.07.35-.15.52-.24.17-.09.35-.17.52-.24"></path><path class="cls-1" d="M33.73,7.53c.43-.57.86-1.14,1.29-1.7.43-.56.9-1.11,1.4-1.65.47-.58.41-1.06-.16-1.46-.19-.16-.39-.29-.6-.41-.21-.12-.4-.24-.59-.36-.04-.02-.07,0-.1-.03l-2.59-1.43s-4.35,2.6-21.84,33.48c-.27.43-.55.85-.82,1.28-.6.94-1.19,1.87-1.76,2.77-.57.91-1.14,1.83-1.7,2.77-.33.53-.66,1.06-.99,1.61-.33.55-.65,1.1-.98,1.66-.09.12-.16.18-.19.18l-.02-.21c.16-.83.3-1.63.43-2.42.13-.79.27-1.58.43-2.37.16-.79.32-1.56.46-2.32.15-.75.3-1.51.47-2.26.24-1.01.47-2.01.68-3,.21-.99.45-1.97.73-2.95.25-.94.49-1.88.72-2.82.23-.94.49-1.88.78-2.83.18-.62.34-1.21.49-1.79.15-.58.33-1.16.55-1.75.33-1.16.68-2.3,1.06-3.41.37-1.11.76-2.23,1.17-3.37.37-1.13.76-2.24,1.17-3.34.41-1.1.82-2.2,1.23-3.3.08-.25.16-.5.24-.74.08-.24.14-.5.18-.78.05-.22.06-.44.03-.66-.02-.23-.15-.41-.38-.57-.05-.14-.13-.22-.24-.26-.11-.04-.2-.09-.28-.15-.31-.25-.68-.47-1.13-.67-.37-.2-.72-.17-1.04.11-.25.27-.49.55-.73.84-.23.29-.47.59-.72.9-.31.42-.61.86-.91,1.31-.3.45-.59.89-.86,1.31-.51.79-1.01,1.6-1.51,2.4-.49.81-.96,1.64-1.39,2.5-.52,1.04-1.02,2.09-1.48,3.14-.47,1.05-.89,2.12-1.26,3.22-.19.55-.36,1.11-.53,1.69-.17.58-.25,1.17-.26,1.77.01.14.06.24.14.3.17.23.35.44.54.63.2.19.39.38.59.57.27.22.58.31.93.27.07,0,.12-.03.15-.07.15-.19.24-.38.26-.55-.01-.1,0-.21.02-.32.02-.11.05-.2.08-.27.28-.94.61-1.85.97-2.71.36-.86.74-1.72,1.15-2.57.05-.18.16-.33.32-.46-.05.18-.1.35-.16.52-.05.16-.1.34-.15.52-.21.69-.41,1.38-.62,2.07-.21.69-.41,1.38-.62,2.07-.15.58-.31,1.15-.47,1.71-.17.56-.31,1.13-.42,1.71-.18.65-.34,1.3-.5,1.95-.16.65-.32,1.32-.5,2-.27,1.12-.52,2.24-.77,3.35-.25,1.12-.49,2.23-.72,3.35-.11.61-.22,1.2-.34,1.78-.12.57-.23,1.15-.34,1.72-.11.64-.21,1.29-.32,1.93-.11.64-.21,1.27-.32,1.88-.09.47-.16.91-.22,1.34-.06.43-.13.88-.22,1.34-.09.5-.16,1.01-.23,1.53-.07.52-.11,1.02-.13,1.52-.02.18-.02.33,0,.45.01.12.06.25.15.38.29.39.57.75.85,1.07.12.13.25.25.38.35.13.11.26.23.38.35.27.22.59.32.96.32.37,0,.68-.11.94-.31.09-.12.19-.22.28-.32.09-.1.17-.2.23-.31.21-.3.43-.6.64-.89s.43-.58.64-.89c.48-.75.95-1.49,1.4-2.21.45-.72.92-1.45,1.4-2.21.54-.87,1.08-1.73,1.62-2.6.54-.87,1.08-1.73,1.62-2.6.69-1.06,1.38-2.11,2.06-3.15.68-1.04,1.36-2.11,2.05-3.2.33-.53.66-1.04.99-1.53.33-.49.67-.99,1-1.48l3.42-4.96c.51-.76,1.03-1.51,1.55-2.25.52-.74,1.05-1.49,1.6-2.25.49-.65.97-1.32,1.45-2,.47-.68.95-1.37,1.44-2.05.34-.42.66-.85.97-1.29.3-.44.62-.88.96-1.34.74-.99,1.48-2,2.23-3.03s1.51-2.06,2.28-3.09Z"></path></g><g><g><path class="cls-1" d="M84.93,16.33v6.32h2.8v.82h-3.67v-7.13h.87Z"></path><path class="cls-1" d="M90.02,16.33v7.13h-.87v-7.13h.87Z"></path><path class="cls-1" d="M97.05,16.33h.97l-3.31,7.49-3.31-7.49h.97l2.34,5.52,2.34-5.52Z"></path><path class="cls-1" d="M100.26,16.33v7.13h-.87v-7.13h.87ZM99.87,16.33h3.6v.82h-3.6v-.82ZM99.87,19.18h3.39v.82h-3.39v-.82ZM99.87,22.65h3.6v.82h-3.6v-.82Z"></path><path class="cls-1" d="M109.94,16.33v7.13h-.87v-7.13h.87ZM109.55,16.33h1.46c.46,0,.87.09,1.24.26.36.17.65.42.87.74.21.32.32.7.32,1.14s-.11.81-.32,1.14c-.21.32-.5.57-.87.74-.36.17-.78.26-1.24.26h-1.46v-.82h1.46c.46,0,.84-.11,1.13-.34s.43-.55.43-.99-.14-.77-.43-.99c-.29-.22-.66-.33-1.13-.33h-1.46v-.82Z"></path><path class="cls-1" d="M116.03,16.33v7.13h-.87v-7.13h.87ZM115.64,16.33h1.46c.46,0,.87.09,1.24.26.36.17.65.42.87.74.21.32.32.7.32,1.14s-.11.81-.32,1.14c-.21.32-.5.57-.87.74-.36.17-.78.26-1.24.26h-1.46v-.76h1.46c.31,0,.58-.05.81-.16.23-.11.42-.26.55-.47s.2-.45.2-.74-.07-.54-.2-.74-.32-.36-.55-.47c-.23-.11-.5-.16-.81-.16h-1.46v-.76ZM117.41,19.95l2.55,3.51h-1.07l-2.45-3.51h.97Z"></path><path class="cls-1" d="M121.24,18.44c.18-.44.43-.83.76-1.16.33-.33.71-.59,1.15-.77.44-.19.92-.28,1.44-.28s1,.09,1.44.28c.44.19.82.44,1.15.77.33.33.58.72.76,1.16.18.44.27.93.27,1.45s-.09,1-.27,1.45c-.18.45-.43.84-.76,1.17-.33.33-.71.59-1.15.77-.44.19-.92.28-1.44.28s-1-.09-1.44-.28c-.44-.19-.83-.44-1.15-.77-.33-.33-.58-.72-.76-1.17s-.27-.93-.27-1.45.09-1.01.27-1.45ZM122.24,21.33c.23.42.56.75.96,1,.41.24.87.37,1.39.37s.99-.12,1.39-.37c.4-.24.72-.58.96-1,.23-.42.35-.9.35-1.44s-.12-1.02-.35-1.44c-.23-.42-.55-.75-.96-1-.4-.24-.87-.37-1.39-.37s-.98.12-1.39.37c-.41.24-.73.58-.96,1-.23.42-.35.9-.35,1.44s.12,1.02.35,1.44Z"></path><path class="cls-1" d="M130.8,16.33v7.13h-.87v-7.13h.87ZM130.42,16.33h1.46c.46,0,.87.09,1.24.26.36.17.65.42.87.74.21.32.32.7.32,1.14s-.11.81-.32,1.14c-.21.32-.5.57-.87.74-.36.17-.78.26-1.24.26h-1.46v-.82h1.46c.46,0,.84-.11,1.13-.34s.43-.55.43-.99-.14-.77-.43-.99c-.29-.22-.66-.33-1.13-.33h-1.46v-.82Z"></path><path class="cls-1" d="M136.9,16.33v7.13h-.87v-7.13h.87ZM136.51,16.33h3.6v.82h-3.6v-.82ZM136.51,19.18h3.39v.82h-3.39v-.82ZM136.51,22.65h3.6v.82h-3.6v-.82Z"></path><path class="cls-1" d="M143.01,16.33v7.13h-.87v-7.13h.87ZM142.62,16.33h1.46c.46,0,.87.09,1.24.26.36.17.65.42.87.74.21.32.32.7.32,1.14s-.11.81-.32,1.14c-.21.32-.5.57-.87.74-.36.17-.78.26-1.24.26h-1.46v-.76h1.46c.31,0,.58-.05.81-.16.23-.11.42-.26.55-.47s.2-.45.2-.74-.07-.54-.2-.74-.32-.36-.55-.47c-.23-.11-.5-.16-.81-.16h-1.46v-.76ZM144.38,19.95l2.55,3.51h-1.07l-2.45-3.51h.97Z"></path><path class="cls-1" d="M147.64,16.33h4.53v.82h-1.83v6.32h-.87v-6.32h-1.83v-.82Z"></path><path class="cls-1" d="M158.76,16.33l-2.37,4.05v3.08h-.87v-3.07l-2.37-4.07h.97l1.83,3.3,1.84-3.3h.97Z"></path></g><g><path class="cls-1" d="M84.93,35.41h-.87l.87-7.51,2.86,5.18,2.86-5.18.87,7.51h-.87l-.53-4.83-2.33,4.17-2.33-4.17-.53,4.83Z"></path><path class="cls-1" d="M94.73,32.72l-.08.18-1.06,2.51h-.97l3.32-7.51,3.32,7.51h-.97l-1.04-2.45-.08-.2-1.23-2.88-1.21,2.84ZM94.37,32.45h3.17l.31.82h-3.78l.31-.82Z"></path><path class="cls-1" d="M107.05,28.26v7.51l-5.42-5.68v5.33h-.87v-7.51l5.42,5.68v-5.33h.87Z"></path><path class="cls-1" d="M110.67,32.72l-.08.18-1.06,2.51h-.97l3.32-7.51,3.32,7.51h-.97l-1.04-2.45-.08-.2-1.23-2.88-1.21,2.84ZM110.31,32.45h3.17l.31.82h-3.78l.31-.82Z"></path><path class="cls-1" d="M119.71,31.79h3.32c0,.5-.07.97-.22,1.42-.15.45-.37.84-.66,1.19-.29.35-.65.62-1.08.82-.43.2-.91.3-1.46.3s-1-.09-1.44-.27-.83-.44-1.16-.77c-.33-.33-.58-.72-.76-1.17-.18-.45-.27-.94-.27-1.47s.09-1.02.27-1.47c.18-.45.43-.84.76-1.17.33-.33.71-.59,1.16-.77s.92-.27,1.44-.27c.44,0,.85.06,1.22.17.37.12.71.29,1,.51.3.22.55.5.75.84l-.61.56c-.22-.38-.54-.68-.94-.89s-.88-.32-1.42-.32c-.5,0-.96.12-1.37.36-.41.24-.73.57-.98.99-.24.42-.36.91-.36,1.47s.12,1.04.36,1.46c.24.42.57.75.98.99s.87.36,1.37.36c.35,0,.67-.05.96-.16.28-.11.53-.25.73-.44.2-.19.37-.41.51-.65.13-.25.23-.51.29-.79h-2.38v-.82Z"></path><path class="cls-1" d="M125.82,28.26v7.16h-.87v-7.16h.87ZM125.43,28.26h3.61v.82h-3.61v-.82ZM125.43,31.12h3.4v.82h-3.4v-.82ZM125.43,34.6h3.61v.82h-3.61v-.82Z"></path><path class="cls-1" d="M131.66,35.41h-.87l.87-7.51,2.86,5.18,2.86-5.18.87,7.51h-.87l-.53-4.83-2.33,4.17-2.33-4.17-.53,4.83Z"></path><path class="cls-1" d="M140.98,28.26v7.16h-.87v-7.16h.87ZM140.6,28.26h3.61v.82h-3.61v-.82ZM140.6,31.12h3.4v.82h-3.4v-.82ZM140.6,34.6h3.61v.82h-3.61v-.82Z"></path><path class="cls-1" d="M152.66,28.26v7.51l-5.42-5.68v5.33h-.87v-7.51l5.42,5.68v-5.33h.87Z"></path><path class="cls-1" d="M154.21,28.26h4.55v.82h-1.84v6.34h-.87v-6.34h-1.84v-.82Z"></path></g></g></svg>